<?xml version="1.0" standalone="no"?>
<!DOCTYPE svg PUBLIC "-//W3C//DTD SVG 20010904//EN" "http://www.w3.org/TR/2001/REC-SVG-20010904/DTD/svg10.dtd">
<svg xmlns="http://www.w3.org/2000/svg" version="1.0" width="500.000000pt" height="500.000000pt" viewBox="0 0 500.000000 500.000000" preserveAspectRatio="xMidYMid meet">
<metadata>
Created by potrace 1.16, written by Peter Selinger 2001-2019
<meta name="Producer" content="Online-Convert"/></metadata>
<g transform="translate(0.000000,500.000000) scale(0.100000,-0.100000)" fill="#000000" stroke="none">
<path d="M702 3842 l-122 -3 2 -442 3 -442 204 -1 c224 -2 258 3 346 46 167 81 256 265 226 468 -21 145 -99 250 -232 316 -110 54 -183 64 -427 58z m277 -193 c69 -14 125 -58 158 -121 38 -75 39 -188 1 -268 -31 -65 -48 -82 -113 -111 -35 -16 -77 -23 -142 -27 l-93 -5 0 266 0 266 28 4 c54 8 112 7 161 -4z"/>
<path d="M1484 3830 c-30 -12 -64 -58 -64 -86 0 -62 50 -104 122 -104 53 0 76 20 85 73 8 53 -4 85 -40 107 -34 21 -68 24 -103 10z"/>
<path d="M2592 3586 c-23 -8 -54 -21 -67 -30 -24 -16 -25 -16 -25 9 l0 26 -87 -3 -88 -3 -3 -316 -2 -317 87 2 88 1 3 190 c1 105 5 197 9 205 3 8 7 17 7 20 6 24 31 50 57 59 57 20 98 14 130 -18 l29 -29 0 -210 c0 -203 1 -210 20 -215 17 -4 143 -3 174 2 10 1 5 398 -6 461 -11 63 -47 111 -106 143 -62 34 -156 44 -220 23z"/>
<path d="M3189 3586 c-79 -21 -154 -89 -192 -175 -30 -67 -29 -198 2 -263 31 -64 94 -126 159 -156 67 -31 164 -29 229 5 46 24 53 22 53 -16 0 -106 -178 -138 -275 -51 -19 18 -22 17 -76 -23 -82 -61 -87 -72 -49 -107 17 -16 57 -39 88 -52 49 -19 75 -23 177 -22 115 0 122 1 183 32 40 21 73 47 92 74 55 76 60 110 60 450 l0 308 -95 0 c-95 0 -95 0 -95 -25 0 -25 0 -25 -19 -6 -37 37 -157 50 -242 27z m215 -175 c46 -43 58 -138 27 -207 -24 -53 -55 -74 -109 -74 -52 0 -90 20 -120 64 -34 49 -32 153 4 195 14 17 40 35 57 41 49 14 115 6 141 -19z"/>
<path d="M3912 3586 c-216 -70 -281 -358 -122 -539 85 -97 268 -129 389 -68 62 32 134 119 150 180 12 47 16 159 7 216 -11 72 -81 151 -169 190 -74 34 -187 43 -255 21z m198 -183 c22 -21 33 -43 42 -83 20 -100 -26 -190 -104 -205 -48 -9 -121 23 -141 62 -20 38 -20 160 0 191 41 65 149 84 203 35z"/>
<path d="M1870 3581 c-50 -16 -88 -41 -119 -80 -17 -21 -31 -43 -31 -47 0 -16 81 -104 96 -104 7 0 25 18 39 41 32 49 77 71 126 60 66 -15 89 -36 89 -82 0 -16 -7 -19 -52 -19 -158 -1 -256 -32 -301 -96 -16 -22 -31 -59 -34 -81 -8 -59 20 -142 58 -172 79 -62 211 -69 288 -16 35 24 57 24 47 -1 -8 -21 13 -28 96 -29 l78 -1 0 216 c0 168 -3 226 -15 261 -37 108 -122 160 -263 158 -42 0 -88 -4 -102 -8z m200 -386 c0 -26 -9 -45 -34 -73 -31 -33 -39 -37 -82 -36 -83 2 -109 67 -48 122 21 18 37 22 95 22 l69 0 0 -35z"/>
<path d="M1440 3563 c0 -5 0 -146 0 -316 1 -317 -3 -347 -40 -347 -41 0 -50 -11 -50 -59 0 -69 13 -81 95 -87 60 -5 76 -2 115 18 29 15 47 32 51 48 4 14 7 188 8 388 l1 362 -90 0 c-49 0 -90 -3 -90 -7z"/>
<path d="M2390 2864 c-140 -24 -347 -60 -460 -80 -113 -20 -258 -44 -324 -54 -113 -18 -135 -24 -125 -35 3 -2 153 -9 335 -15 181 -5 380 -13 442 -16 l112 -6 -50 -64 c-27 -35 -50 -68 -50 -74 0 -10 94 -8 305 5 33 2 130 7 215 11 85 3 158 8 161 10 3 2 6 -17 5 -41 0 -48 0 -48 -66 -49 l-35 -1 -3 -77 c-3 -84 -6 -81 58 -82 l35 -1 1 -135 c2 -162 9 -213 39 -261 35 -54 76 -69 189 -69 l97 0 -3 78 -3 77 -48 6 c-27 3 -53 12 -58 20 -5 7 -9 76 -9 151 l0 137 48 -6 c61 -7 69 3 64 90 l-4 67 -54 0 -54 0 0 49 0 50 53 5 c28 4 162 11 297 16 463 20 804 40 813 49 11 11 -120 18 -678 36 -496 16 -879 33 -1004 43 l-84 7 67 98 c36 55 66 101 66 103 0 7 -28 3 -290 -42z"/>
<path d="M580 2275 l0 -445 285 0 285 0 0 84 c0 78 -1 84 -22 90 -13 3 -94 6 -180 6 l-158 0 0 85 0 85 162 2 163 3 1 70 c2 109 9 105 -171 105 l-155 0 0 90 0 90 175 0 c133 0 175 3 175 13 1 6 2 47 3 90 l2 77 -282 0 -283 0 0 -445z"/>
<path d="M1218 2603 c-2 -65 -3 -264 -3 -443 l0 -325 100 0 100 0 -2 255 c-1 140 -2 339 -2 443 l-1 187 -94 0 -95 0 -3 -117z"/>
<path d="M2485 2472 c-16 -2 -59 -12 -94 -24 -78 -25 -140 -83 -179 -166 -38 -82 -38 -194 0 -272 40 -81 81 -125 146 -157 50 -24 69 -28 147 -28 80 0 97 3 150 30 62 31 119 92 131 142 8 28 -1 40 -36 47 -14 3 -47 11 -74 18 -40 10 -50 10 -54 -1 -2 -7 -14 -24 -27 -39 -20 -24 -31 -27 -83 -27 -46 0 -65 5 -82 20 -72 64 -65 218 12 265 61 37 145 16 163 -40 8 -25 29 -25 127 1 72 19 78 23 72 43 -19 64 -97 145 -157 165 -47 16 -125 27 -162 23z"/>
<path d="M3622 2460 c-35 -9 -69 -23 -75 -29 -15 -15 -27 -14 -27 4 0 8 -3 15 -7 16 -43 6 -133 9 -150 4 l-23 -5 0 -311 0 -310 91 3 90 3 3 180 c2 99 7 188 11 198 10 23 72 55 124 63 47 7 56 19 66 84 3 25 9 53 11 62 5 16 -28 59 -43 57 -5 0 -36 -9 -71 -19z"/>
<path d="M1743 2460 c-147 -31 -244 -152 -251 -315 -5 -104 22 -182 83 -241 97 -94 291 -108 414 -30 76 47 128 130 89 140 -7 2 -41 13 -76 24 l-63 21 -21 -24 c-12 -14 -41 -32 -65 -41 -36 -14 -50 -15 -83 -5 -39 11 -90 61 -90 87 0 16 -2 16 240 18 l175 1 3 61 c5 95 -47 222 -102 251 -11 6 -39 20 -61 32 -47 24 -133 34 -192 21z m138 -179 c31 -31 37 -51 17 -52 -7 0 -4 -4 7 -9 13 -5 -25 -9 -102 -9 -68 -1 -123 1 -123 4 0 16 33 66 52 79 13 9 43 16 71 16 40 0 53 -5 78 -29z"/>
<path d="M3935 2450 c-45 -14 -73 -32 -108 -67 -66 -65 -90 -133 -91 -248 -1 -79 2 -97 27 -147 32 -65 70 -101 144 -135 103 -47 237 -39 333 22 105 66 143 203 103 373 -15 64 -23 78 -70 126 -91 92 -206 118 -338 76z m175 -168 c46 -23 60 -53 60 -132 0 -75 -21 -120 -69 -145 -64 -33 -132 -10 -166 55 -22 43 -19 138 5 178 35 57 107 76 170 44z"/>
</g>
</svg>
